# xmcd CD database file
#
# Track frame offsets:
#	150
#	21608
#	36868
#	55959
#	70972
#	92450
#	106568
#	133558
#	154676
#	173253
#	192427
#
# Disc length: 2840 seconds
#
# Revision: 0
# Processed by: cddbd v1.5.2PL0 Copyright (c) Steve Scherf et al.
# Submitted via: CDex 1.51
#
DISCID=870b160b
DTITLE=Coda - Repeat This!
DYEAR=1999
DGENRE=Jazz
TTITLE0=Anywhere With You
TTITLE1=Love Theme from St. Elmo's Fire
TTITLE2=You Are So Beautiful
TTITLE3=Trippin' Along
TTITLE4=Desperado
TTITLE5=Findin' the Groove
TTITLE6=My Heart Will Go On ('Titanic' Love Theme)
TTITLE7=OneTime Memories
TTITLE8=When a Man Loves a Woman
TTITLE9=She Was Only a Dream
TTITLE10=Ave Maria
EXTD=YEAR: 1999
EXTT0=
EXTT1=
EXTT2=
EXTT3=
EXTT4=
EXTT5=
EXTT6=
EXTT7=
EXTT8=
EXTT9=
EXTT10=
PLAYORDER=
